<?xml version="1.0" encoding="utf-8"?>
<!-- Generator: Adobe Illustrator 23.1.1, SVG Export Plug-In . SVG Version: 6.00 Build 0)  -->
<svg version="1.1" id="Layer_1" xmlns="http://www.w3.org/2000/svg" xmlns:xlink="http://www.w3.org/1999/xlink" x="0px" y="0px"
	 viewBox="0 0 350 87" style="enable-background:new 0 0 350 87;" xml:space="preserve">
<style type="text/css">
	.st0{clip-path:url(#SVGID_2_);fill:url(#SVGID_3_);}
	.st1{clip-path:url(#SVGID_5_);fill:url(#SVGID_6_);}
	.st2{clip-path:url(#SVGID_8_);fill:url(#SVGID_9_);}
	.st3{fill:#414141;}
	.st4{clip-path:url(#SVGID_11_);fill:url(#SVGID_12_);}
</style>
<g>
	<g>
		<g>
			<g>
				<g>
					<defs>
						<path id="SVGID_1_" d="M122.9,15.5c-2.9,1.2-5.5,2.9-7.8,5.2c-2.3,2.3-4,4.9-5.2,7.8c-1.1,2.9-1.7,5.9-1.7,8.9
							c0,3,0.6,6,1.7,8.9c1.1,2.9,2.9,5.5,5.2,7.8c2.3,2.3,4.9,4,7.8,5.2c2.9,1.2,5.9,1.7,8.9,1.7c1.2,0,2.5-0.1,3.8-0.3
							c1.3-0.2,2.5-0.5,3.7-0.9V61h10.9V34.6h-20.3v10.8h9.4v2.4c-1.2,0.9-2.6,1.5-4,1.9c-1.5,0.4-2.9,0.5-4.4,0.4
							c-1.5-0.1-2.9-0.5-4.3-1.1c-1.4-0.6-2.6-1.5-3.8-2.6c-1.2-1.2-2.2-2.7-2.8-4.2c-0.6-1.6-1-3.2-1-4.8c0-1.6,0.3-3.2,1-4.8
							c0.6-1.6,1.6-3,2.8-4.2c1.2-1.2,2.6-2.2,4.2-2.8c1.6-0.6,3.2-0.9,4.8-0.9c1.6,0,3.2,0.3,4.8,0.9c1.6,0.6,3,1.6,4.2,2.8
							l7.7-7.7c-2.3-2.3-4.9-4-7.8-5.2c-2.9-1.2-5.9-1.7-8.9-1.7C128.8,13.8,125.8,14.4,122.9,15.5"/>
					</defs>
					<clipPath id="SVGID_2_">
						<use xlink:href="#SVGID_1_"  style="overflow:visible;"/>
					</clipPath>
					
						<linearGradient id="SVGID_3_" gradientUnits="userSpaceOnUse" x1="-405.3911" y1="592.4596" x2="-404.4582" y2="592.4596" gradientTransform="matrix(-45.0038 0 0 45.0038 -18093.9199 -26625.502)">
						<stop  offset="0" style="stop-color:#EFAA26"/>
						<stop  offset="1" style="stop-color:#EE8C22"/>
					</linearGradient>
					<rect x="108.2" y="13.8" class="st0" width="42" height="47.3"/>
				</g>
			</g>
		</g>
		<g>
			<g>
				<g>
					<defs>
						<path id="SVGID_4_" d="M176.9,33l3.7,11.4H173L176.9,33z M171.9,13.9L155.8,61h11.5l1.9-5.7h14.8l1.9,5.7h11.4l-15.2-47.1
							C182.1,13.9,171.9,13.9,171.9,13.9z"/>
					</defs>
					<clipPath id="SVGID_5_">
						<use xlink:href="#SVGID_4_"  style="overflow:visible;"/>
					</clipPath>
					
						<linearGradient id="SVGID_6_" gradientUnits="userSpaceOnUse" x1="-405.413" y1="592.6168" x2="-404.4801" y2="592.6168" gradientTransform="matrix(-44.5225 0 0 44.5225 -17852.5957 -26347.3496)">
						<stop  offset="0" style="stop-color:#EFAA26"/>
						<stop  offset="1" style="stop-color:#EE8C22"/>
					</linearGradient>
					<rect x="155.8" y="13.9" class="st1" width="41.5" height="47.1"/>
				</g>
			</g>
		</g>
		<g>
			<g>
				<g>
					<defs>
						<path id="SVGID_7_" d="M212.2,24.8c1.2,0,2.3,0.2,3.3,0.6c1,0.4,2,0.8,2.8,1.4c0.8,0.6,1.4,1.3,1.9,2.1
							c0.4,0.8,0.7,1.6,0.7,2.5c0,0.9-0.2,1.7-0.7,2.5c-0.5,0.8-1.1,1.5-1.9,2.1c-0.8,0.6-1.7,1.1-2.8,1.4c-1.1,0.4-2.2,0.6-3.3,0.6
							V24.8z M201.4,14v46.9h10.8V49c0.6,0,1.2-0.1,1.7-0.1c0.6,0,1.1-0.1,1.7-0.2l7.6,12.2H236l-10.4-16.8c1.9-1.6,3.9-3.2,5.2-5.2
							c1.4-2.2,2.1-4.8,2.1-7.3c0-2.4-0.4-5-1.4-7.1c-1-2.1-2.3-4.1-4.1-5.6c-1.8-1.6-3.7-2.5-6.2-3.5c-2.4-0.9-6.3-1.3-9-1.4
							L201.4,14L201.4,14z"/>
					</defs>
					<clipPath id="SVGID_8_">
						<use xlink:href="#SVGID_7_"  style="overflow:visible;"/>
					</clipPath>
					
						<linearGradient id="SVGID_9_" gradientUnits="userSpaceOnUse" x1="-407.116" y1="595.5685" x2="-406.1837" y2="595.5685" gradientTransform="matrix(-37.112 0 0 37.112 -14872.9365 -22065.3125)">
						<stop  offset="0" style="stop-color:#EFAA26"/>
						<stop  offset="1" style="stop-color:#EE8C22"/>
					</linearGradient>
					<rect x="201.4" y="14" class="st2" width="34.6" height="46.9"/>
				</g>
			</g>
		</g>
		<polygon class="st3" points="268.5,13.9 279.3,13.9 279.3,61 267.6,61 252.2,33.5 252.2,61 241.3,61 241.3,14 253.1,14 
			268.5,41.4 		"/>
		<polygon class="st3" points="314.9,24.7 295.6,24.7 295.6,31.8 311.3,31.8 311.3,42.7 295.6,42.7 295.6,50.1 314.9,50.1 314.9,61 
			284.7,61 284.7,13.9 314.9,13.9 		"/>
		<polygon class="st3" points="347.7,13.8 347.7,24.6 338.7,24.6 338.7,61.1 327.8,61.1 327.8,24.6 318.8,24.6 318.8,13.8 		"/>
	</g>
	<g>
		<path class="st3" d="M148.7,71.5c0.1,0.1,0.2,0.3,0.2,0.5c0,0.2-0.1,0.3-0.2,0.5c-0.1,0.1-0.3,0.2-0.5,0.2H145v9
			c0,0.2-0.1,0.4-0.2,0.5c-0.1,0.1-0.3,0.2-0.5,0.2c-0.2,0-0.4-0.1-0.5-0.2c-0.1-0.1-0.2-0.3-0.2-0.5v-9h-3.2
			c-0.2,0-0.3-0.1-0.5-0.2c-0.1-0.1-0.2-0.3-0.2-0.5c0-0.2,0.1-0.3,0.2-0.5c0.1-0.1,0.3-0.2,0.5-0.2h7.8
			C148.4,71.3,148.6,71.4,148.7,71.5z"/>
		<path class="st3" d="M167.8,81.1c0.1,0.1,0.2,0.3,0.2,0.5c0,0.2-0.1,0.3-0.2,0.5c-0.1,0.1-0.3,0.2-0.5,0.2h-6.3
			c-0.2,0-0.4-0.1-0.5-0.2c-0.1-0.1-0.2-0.3-0.2-0.5v-9.5c0-0.2,0.1-0.4,0.2-0.5c0.1-0.1,0.3-0.2,0.5-0.2h6.3c0.2,0,0.3,0.1,0.5,0.2
			c0.1,0.1,0.2,0.3,0.2,0.5c0,0.2-0.1,0.3-0.2,0.5c-0.1,0.1-0.3,0.2-0.5,0.2h-5.6v3.5h5c0.2,0,0.3,0.1,0.5,0.2
			c0.1,0.1,0.2,0.3,0.2,0.5c0,0.2-0.1,0.3-0.2,0.5c-0.1,0.1-0.3,0.2-0.5,0.2h-5v3.5h5.6C167.5,80.9,167.7,81,167.8,81.1z"/>
		<path class="st3" d="M188,80.3c0.1,0,0.2-0.1,0.3-0.1c0.1,0,0.3,0.1,0.4,0.2c0.1,0.1,0.2,0.3,0.2,0.4c0,0.3-0.1,0.5-0.4,0.6
			c-0.5,0.3-1,0.5-1.6,0.7c-0.6,0.2-1.2,0.3-2,0.3c-0.8,0-1.5-0.1-2.2-0.4c-0.7-0.3-1.2-0.6-1.7-1.1c-1-1-1.6-2.4-1.6-4.1
			c0-1.7,0.5-3.1,1.6-4.1c1-1,2.3-1.5,3.9-1.5c0.8,0,1.4,0.1,2,0.3c0.6,0.2,1,0.4,1.3,0.5c0.3,0.2,0.5,0.3,0.5,0.4
			c0.1,0.1,0.1,0.2,0.1,0.4c0,0.2-0.1,0.3-0.2,0.4c-0.1,0.1-0.2,0.2-0.4,0.2c-0.1,0-0.3,0-0.4-0.1c-0.4-0.2-0.9-0.4-1.3-0.5
			c-0.4-0.1-1-0.2-1.6-0.2c-0.7,0-1.2,0.1-1.8,0.3c-0.5,0.2-1,0.5-1.3,0.9c-0.7,0.8-1,1.8-1,3c0,1.3,0.3,2.3,1,3
			c0.8,0.8,1.8,1.2,3.2,1.2c0.6,0,1.1-0.1,1.6-0.2C187.1,80.7,187.5,80.5,188,80.3z"/>
		<path class="st3" d="M208.9,71.2c0.2,0,0.4,0.1,0.5,0.2c0.1,0.1,0.2,0.3,0.2,0.5v9.6c0,0.2-0.1,0.4-0.2,0.5
			c-0.1,0.1-0.3,0.2-0.5,0.2c-0.2,0-0.4-0.1-0.5-0.2c-0.1-0.1-0.2-0.3-0.2-0.5v-4.1h-5.9v4.1c0,0.2-0.1,0.4-0.2,0.5
			c-0.1,0.1-0.3,0.2-0.5,0.2c-0.2,0-0.4-0.1-0.5-0.2c-0.1-0.1-0.2-0.3-0.2-0.5V72c0-0.2,0.1-0.4,0.2-0.5c0.1-0.2,0.3-0.2,0.5-0.2
			c0.2,0,0.4,0.1,0.5,0.2c0.2,0.1,0.2,0.3,0.2,0.5v4.2h5.9V72c0-0.2,0.1-0.4,0.2-0.5C208.5,71.3,208.7,71.2,208.9,71.2z"/>
		<path class="st3" d="M231.2,71.2c0.2,0,0.4,0.1,0.5,0.2c0.1,0.1,0.2,0.3,0.2,0.5v9.3c0,0.3-0.1,0.5-0.3,0.7
			c-0.2,0.2-0.4,0.3-0.7,0.3h-0.2c-0.3,0-0.6-0.1-0.8-0.4l-6-8.7v8.5c0,0.2-0.1,0.4-0.2,0.5c-0.1,0.1-0.3,0.2-0.5,0.2
			c-0.2,0-0.4-0.1-0.5-0.2c-0.1-0.1-0.2-0.3-0.2-0.5v-9.3c0-0.3,0.1-0.5,0.3-0.7c0.2-0.2,0.4-0.3,0.7-0.3h0.2c0.3,0,0.6,0.2,0.9,0.5
			l6,8.7V72c0-0.2,0.1-0.4,0.2-0.5C230.8,71.3,231,71.2,231.2,71.2z"/>
		<path class="st3" d="M245.6,72.7c1-1,2.3-1.6,4-1.6c1.7,0,3,0.5,4,1.6c1,1,1.5,2.4,1.5,4c0,1.7-0.5,3-1.5,4c-1,1-2.3,1.6-4,1.6
			c-1.7,0-3-0.5-4-1.6c-1-1-1.5-2.4-1.5-4C244.1,75.1,244.6,73.8,245.6,72.7z M249.5,81.1c1.3,0,2.3-0.4,3-1.2
			c0.7-0.8,1.1-1.8,1.1-3.1c0-1.2-0.4-2.3-1.1-3.1c-0.7-0.8-1.7-1.2-3-1.2c-1.3,0-2.3,0.4-3,1.2c-0.7,0.8-1.1,1.8-1.1,3.1
			c0,1.3,0.3,2.3,1.1,3.1C247.3,80.7,248.3,81.1,249.5,81.1z"/>
		<path class="st3" d="M274.2,81c0.1,0.1,0.2,0.3,0.2,0.5c0,0.2-0.1,0.4-0.2,0.5c-0.1,0.1-0.3,0.2-0.5,0.2h-5.6
			c-0.3,0-0.5-0.1-0.7-0.3c-0.2-0.2-0.3-0.4-0.3-0.7V72c0-0.2,0.1-0.4,0.2-0.5c0.1-0.1,0.3-0.2,0.5-0.2c0.2,0,0.4,0.1,0.5,0.2
			c0.1,0.1,0.2,0.3,0.2,0.5v8.9h5.1C273.9,80.8,274.1,80.9,274.2,81z"/>
		<path class="st3" d="M286.8,72.7c1-1,2.3-1.6,4-1.6c1.7,0,3,0.5,4,1.6c1,1,1.5,2.4,1.5,4c0,1.7-0.5,3-1.5,4c-1,1-2.3,1.6-4,1.6
			c-1.7,0-3-0.5-4-1.6c-1-1-1.5-2.4-1.5-4C285.3,75.1,285.8,73.8,286.8,72.7z M290.8,81.1c1.3,0,2.3-0.4,3-1.2
			c0.7-0.8,1.1-1.8,1.1-3.1c0-1.2-0.4-2.3-1.1-3.1c-0.7-0.8-1.7-1.2-3-1.2c-1.3,0-2.3,0.4-3,1.2c-0.7,0.8-1.1,1.8-1.1,3.1
			c0,1.3,0.3,2.3,1.1,3.1C288.5,80.7,289.5,81.1,290.8,81.1z"/>
		<path class="st3" d="M313.4,81.1c1,0,1.9-0.2,2.8-0.7v-2.8h-2.6c-0.2,0-0.3-0.1-0.4-0.2c-0.1-0.1-0.2-0.3-0.2-0.5
			c0-0.2,0.1-0.3,0.2-0.5c0.1-0.1,0.3-0.2,0.4-0.2h3.1c0.2,0,0.4,0.1,0.5,0.2c0.2,0.1,0.2,0.3,0.2,0.5v3.5c0,0.2-0.1,0.4-0.2,0.6
			c-0.1,0.2-0.3,0.3-0.4,0.4c-1.2,0.6-2.4,0.9-3.6,0.9c-1.6,0-3-0.5-4-1.6c-1-1-1.5-2.4-1.5-4c0-1.7,0.5-3,1.6-4.1
			c1-1,2.3-1.5,3.9-1.5c0.9,0,1.6,0.1,2.3,0.3c0.6,0.2,1.2,0.5,1.6,0.8c0.2,0.1,0.3,0.3,0.3,0.5s-0.1,0.4-0.2,0.5
			c-0.1,0.1-0.2,0.2-0.4,0.2c-0.2,0-0.3,0-0.4-0.1c-1-0.6-2-0.9-3.1-0.9c-1.2,0-2.2,0.4-3,1.1c-0.8,0.8-1.2,1.8-1.2,3.1
			c0,1.2,0.4,2.2,1.1,3C311,80.7,312.1,81.1,313.4,81.1z"/>
		<path class="st3" d="M336.6,71.6c0.2-0.2,0.3-0.4,0.6-0.4c0.2,0,0.4,0.1,0.5,0.2c0.1,0.1,0.2,0.3,0.2,0.5c0,0.2,0,0.3-0.1,0.5
			l-3.7,5.2v4c0,0.2-0.1,0.4-0.2,0.5c-0.1,0.1-0.3,0.2-0.5,0.2c-0.2,0-0.4-0.1-0.5-0.2c-0.1-0.1-0.2-0.3-0.2-0.5v-4l-3.7-5.2
			c-0.1-0.1-0.1-0.3-0.1-0.5c0-0.2,0.1-0.3,0.2-0.5c0.1-0.1,0.3-0.2,0.5-0.2c0.2,0,0.4,0.1,0.6,0.4l3.3,4.8L336.6,71.6z"/>
	</g>
	<g>
		<path class="st3" d="M19.5,53.8c-1,0-1.8-0.8-1.8-1.8c0-1,0.8-1.8,1.8-1.8c1,0,1.8,0.8,1.8,1.8C21.3,53,20.5,53.8,19.5,53.8
			 M7.3,40.9c-1,0-1.8-0.8-1.8-1.8c0-1,0.8-1.8,1.8-1.8c1,0,1.8,0.8,1.8,1.8C9.1,40.1,8.3,40.9,7.3,40.9 M16.9,27.6
			c-1,0-1.8-0.8-1.8-1.8c0-1,0.8-1.8,1.8-1.8c1,0,1.8,0.8,1.8,1.8C18.7,26.7,17.9,27.6,16.9,27.6 M60.6,7.7
			c-12,0-22.4,6.7-27.7,16.5H21.7c-0.7-2-2.6-3.5-4.8-3.5c-2.8,0-5.1,2.3-5.1,5.1s2.3,5.1,5.1,5.1c2.1,0,4-1.3,4.7-3.2h9.7
			c-1.2,3.1-1.9,6.4-2.1,9.9h-17c-0.7-2-2.6-3.5-4.8-3.5c-2.8,0-5.1,2.3-5.1,5.1c0,2.8,2.3,5.1,5.1,5.1c2.1,0,4-1.3,4.7-3.2h17.2
			c0.2,3.3,0.9,6.4,2,9.3h-6.9c-0.7-2-2.6-3.5-4.8-3.5c-2.8,0-5.1,2.3-5.1,5.1c0,2.8,2.3,5.1,5.1,5.1c2.1,0,4-1.3,4.7-3.2h8.6
			c5.3,9.9,15.7,16.7,27.7,16.7C78,70.5,92,56.4,92,39.1S78,7.7,60.6,7.7"/>
		<g>
			<g>
				<g>
					<defs>
						<path id="SVGID_10_" d="M56.3,5.1c-19.8,3.7-3.4,47.4-3.4,47.4c23-41.3,32-34.2,32-34.2C80.7,6.6,69.6,4.6,62.6,4.6
							C58.9,4.6,56.3,5.1,56.3,5.1"/>
					</defs>
					<clipPath id="SVGID_11_">
						<use xlink:href="#SVGID_10_"  style="overflow:visible;"/>
					</clipPath>
					
						<linearGradient id="SVGID_12_" gradientUnits="userSpaceOnUse" x1="-406.3871" y1="604.4741" x2="-405.1276" y2="604.4741" gradientTransform="matrix(-30.4601 0 0 30.4601 -12293.6426 -18383.7871)">
						<stop  offset="0" style="stop-color:#EFAA26"/>
						<stop  offset="1" style="stop-color:#EE8C22"/>
					</linearGradient>
					<rect x="36.6" y="4.6" class="st4" width="48.4" height="47.9"/>
				</g>
			</g>
		</g>
	</g>
</g>
</svg>
